<?xml version="1.0" encoding="UTF-8"?>
<svg width="1129px" height="192px" viewBox="0 0 1129 192" version="1.1" xmlns="http://www.w3.org/2000/svg" xmlns:xlink="http://www.w3.org/1999/xlink">
    <!-- Generator: Sketch 52.6 (67491) - http://www.bohemiancoding.com/sketch -->
    <title>Logo Copy</title>
    <desc>Created with Sketch.</desc>
    <g id="Page-1" stroke="none" stroke-width="1" fill="none" fill-rule="evenodd">
        <g id="Desktop-HD-Copy-6" transform="translate(-1232.000000, -438.000000)">
            <g id="Logo-Copy" transform="translate(1231.000000, 381.000000)">
                <g id="Group-2" transform="translate(355.000000, 0.000000)">
                    <path d="M132.886,227 L16.302,227 L16.302,62.251 L132.886,62.251 L132.886,93.126 L51.376,93.126 L51.376,127.953 L131.157,127.953 L131.157,158.828 L51.376,158.828 L51.376,196.125 L132.886,196.125 L132.886,227 Z M190.931,227 L159.562,227 L159.562,107.699 L190.931,107.699 L190.931,124.001 C199.329,113.38 214.149,104.735 228.969,104.735 L228.969,135.363 C226.746,134.869 223.782,134.622 220.324,134.622 C209.95,134.622 196.118,140.55 190.931,148.207 L190.931,227 Z M360.373,227 L329.004,227 L329.004,211.933 C320.853,221.072 306.527,229.964 287.014,229.964 C260.832,229.964 248.482,215.638 248.482,192.42 L248.482,107.699 L279.851,107.699 L279.851,180.07 C279.851,196.619 288.496,202.053 301.834,202.053 C313.937,202.053 323.57,195.384 329.004,188.468 L329.004,107.699 L360.373,107.699 L360.373,227 Z M505.115,227 L473.499,227 L473.499,211.686 C464.113,223.542 451.022,229.964 436.696,229.964 C406.562,229.964 383.838,207.24 383.838,167.473 C383.838,128.447 406.315,104.735 436.696,104.735 C450.775,104.735 464.113,110.91 473.499,123.013 L473.499,62.251 L505.115,62.251 L505.115,227 Z M446.329,202.053 C456.95,202.053 468.312,196.372 473.499,188.468 L473.499,146.231 C468.312,138.327 456.95,132.646 446.329,132.646 C428.545,132.646 416.195,146.725 416.195,167.473 C416.195,187.974 428.545,202.053 446.329,202.053 Z M551.798,94.855 C541.671,94.855 533.026,86.457 533.026,76.083 C533.026,65.709 541.671,57.558 551.798,57.558 C562.172,57.558 570.57,65.709 570.57,76.083 C570.57,86.457 562.172,94.855 551.798,94.855 Z M567.606,227 L536.237,227 L536.237,107.699 L567.606,107.699 L567.606,227 Z" id="Erudi" fill="#3151AA"></path>
                    <path d="M635.376,227 L600.302,227 L600.302,62.251 L716.886,62.251 L716.886,93.126 L635.376,93.126 L635.376,127.953 L715.157,127.953 L715.157,158.828 L635.376,158.828 L635.376,227 Z M756.159,94.855 C746.032,94.855 737.387,86.457 737.387,76.083 C737.387,65.709 746.032,57.558 756.159,57.558 C766.533,57.558 774.931,65.709 774.931,76.083 C774.931,86.457 766.533,94.855 756.159,94.855 Z M771.967,227 L740.598,227 L740.598,107.699 L771.967,107.699 L771.967,227 Z" id="Fi" fill="#4587EF"></path>
                </g>
                <g id="Logo-Final" transform="translate(0.000000, 53.000000)">
                    <path d="M103.49519,139.933014 L13.283056,139.933014 L79.5295752,73.061244 L146.273427,6.18947368 L212.022613,73.061244 L278.269133,139.933014 L189.057249,139.933014 L146.276219,97.9866029 L103.49519,139.933014 Z" id="Combined-Shape" fill="#4587EF"></path>
                    <path d="M109.573414,167.678469 L146.276725,131.747368 L182.980036,167.678469 L262.162211,167.678469 L290.225928,195.62488 L211.527056,195.62488 L171.49944,195.62488 L146.276725,170.932833 L121.05401,195.62488 L81.0263943,195.62488 L1.33133371,195.62488 L29.3950509,167.678469 L109.573414,167.678469 Z" id="Combined-Shape" fill="#3151AA"></path>
                </g>
            </g>
        </g>
    </g>
</svg>